<?xml version="1.0" encoding="UTF-8"?>
<svg id="Layer_1" data-name="Layer 1" xmlns="http://www.w3.org/2000/svg" version="1.1" xmlns:xlink="http://www.w3.org/1999/xlink" viewBox="0 0 16 16">
  <defs>
    <style>
      .cls-1 {
        fill: url(#linear-gradient-2);
        fill-rule: evenodd;
      }

      .cls-1, .cls-2 {
        stroke-width: 0px;
      }

      .cls-2 {
        fill: #fff;
      }

      .cls-3 {
        fill: none;
        stroke: url(#linear-gradient);
        stroke-linejoin: round;
      }
    </style>
    <linearGradient id="linear-gradient" x1="10.6" y1="13" x2="10.6" y2="7" gradientTransform="translate(0 18) scale(1 -1)" gradientUnits="userSpaceOnUse">
      <stop offset="0" stop-color="#000"/>
      <stop offset=".6" stop-color="#000" stop-opacity=".6"/>
      <stop offset=".8" stop-color="#000" stop-opacity="0"/>
      <stop offset="1" stop-color="#000" stop-opacity="0"/>
    </linearGradient>
    <linearGradient id="linear-gradient-2" x1="7.3" y1="10.3" x2="11.6" y2="15.2" gradientUnits="userSpaceOnUse">
      <stop offset="0" stop-color="#000"/>
      <stop offset="1" stop-color="#000" stop-opacity="0"/>
    </linearGradient>
  </defs>
  <path class="cls-2" d="M15.4,8c0,2.2-.9,4.1-2.4,5.5-.3.3-.6.5-1,.8-1.1.7-2.5,1.2-4,1.2-4.1,0-7.4-3.3-7.4-7.4S3.9.6,8,.6s7.4,3.3,7.4,7.4Z"/>
  <path class="cls-3" d="M10.6,11v-6"/>
  <path class="cls-1" d="M13,13.5c-.3.3-.6.5-1,.8l-6-7.2v4h-1.2v-6h1.3l7,8.5Z"/>
</svg>