<?xml version="1.0" encoding="UTF-8"?>
<svg xmlns="http://www.w3.org/2000/svg" version="1.1" xmlns:inkscape="http://www.inkscape.org/namespaces/inkscape" xmlns:sodipodi="http://sodipodi.sourceforge.net/DTD/sodipodi-0.dtd" xmlns:svg="http://www.w3.org/2000/svg" viewBox="0 0 64 64">
  <defs>
    <style>
      .cls-1 {
        fill: #000;
      }

      .cls-1, .cls-2 {
        stroke-width: 0px;
      }

      .cls-2 {
        fill: #f7df1e;
      }
    </style>
  </defs>
  <g id="svg3" inkscape:version="1.3.2 (091e20e, 2023-11-25)">
    <sodipodi:namedview id="namedview3" bordercolor="#000000" borderopacity="0.25" inkscape:current-layer="svg3" inkscape:cx="128" inkscape:cy="128" inkscape:deskcolor="#d1d1d1" inkscape:pagecheckerboard="0" inkscape:pageopacity="0.0" inkscape:showpageshadow="2" inkscape:window-height="927" inkscape:window-maximized="0" inkscape:window-width="1904" inkscape:window-x="1688" inkscape:window-y="33" inkscape:zoom="2.7734375" pagecolor="#ffffff"/>
    <g id="g3">
      <path id="path1" class="cls-2" d="M6,0h52c3.3,0,6,2.7,6,6v52c0,3.3-2.7,6-6,6H6C2.7,64,0,61.3,0,58V6C0,2.7,2.7,0,6,0Z"/>
      <path id="path2" class="cls-1" d="M16.8,53.5l4.9-3c.9,1.7,1.8,3.1,3.9,3.1s3.2-.8,3.2-3.8v-20.4h6v20.5c0,6.2-3.7,9.1-9,9.1s-7.6-2.5-9-5.5"/>
      <path id="path3" class="cls-1" d="M38.1,52.8l4.9-2.8c1.3,2.1,3,3.7,5.9,3.7s4.1-1.2,4.1-3-1.6-2.8-4.4-4l-1.5-.6c-4.3-1.8-7.2-4.2-7.2-9.1s3.4-7.9,8.8-7.9,6.6,1.3,8.5,4.8l-4.7,3c-1-1.8-2.1-2.6-3.9-2.6s-2.9,1.1-2.9,2.6,1.1,2.5,3.7,3.7l1.5.6c5.1,2.2,8,4.4,8,9.5s-4.3,8.4-10,8.4-9.2-2.7-11-6.1"/>
    </g>
  </g>
</svg>